ffmpeg started on 2025-06-21 at 12:26:04
Report written to "D:\Convert\FFMetrics\reports\psnr_report-6.txt"
Log level: 32
Command line:
ffmpeg -hide_banner -nostdin -i "G:\\\xc0\xed\xe8\xec\xe5\\[\xd2\xee\xef-4]\\\xc4\xe5\xf0\xe6\xe0\xf1\xfc \xc7\xe0 \xd0\xf3\xea\xe8\\Hand_Shakers_[01]_[AniLibria.TV]_[HDTV-Rip_720p]_HEVC.mkv" -i "G:\\\xc0\xed\xe8\xec\xe5\\[\xd2\xee\xef-4]\\\xc4\xe5\xf0\xe6\xe0\xf1\xfc \xc7\xe0 \xd0\xf3\xea\xe8\\Hand_Shakers_[01]_[AniLibria.TV]_[HDTV-Rip_720p].mkv" -lavfi "[0:v]settb=AVTB,setpts=PTS-STARTPTS,format=pix_fmts=yuv420p10,fps=24000/1001,scale=1280:720:flags=bicubic[main];[1:v]settb=AVTB,setpts=PTS-STARTPTS,format=pix_fmts=yuv420p,fps=24000/1001,scale=1280:720:flags=bicubic[ref];[main][ref]psnr=eof_action=endall:stats_file='D\\:/Convert/FFMetrics/logs/psnr_logfile-6.txt'" -f null -
Input #0, matroska,webm, from 'G:\Аниме\[Топ-4]\Держась За Руки\Hand_Shakers_[01]_[AniLibria.TV]_[HDTV-Rip_720p]_HEVC.mkv':
  Metadata:
    ENCODER         : Lavf61.7.100
  Duration: 00:24:00.47, start: -0.021000, bitrate: 2737 kb/s
  Stream #0:0(jpn): Video: hevc (Main 10), yuv420p10le(tv, bt709, progressive), 1280x720 [SAR 1:1 DAR 16:9], 23.98 fps, 23.98 tbr, 1k tbn (default)
      Metadata:
        ENCODER         : Lavc61.19.100 libx265
        BPS             : 2540613
        DURATION        : 00:23:59.354708333
        NUMBER_OF_FRAMES: 34510
        NUMBER_OF_BYTES : 457105218
        _STATISTICS_WRITING_APP: mkvpropedit v66.0.0 ('Josie') 64-bit
        _STATISTICS_WRITING_DATE_UTC: 2025-06-20 15:11:44
        _STATISTICS_TAGS: BPS DURATION NUMBER_OF_FRAMES NUMBER_OF_BYTES
  Stream #0:1(rus): Audio: aac (LC), 48000 Hz, stereo, fltp (default) (forced)
      Metadata:
        title           : Амикири и Анзен
        ENCODER         : Lavc61.19.100 aac
        BPS             : 194155
        DURATION        : 00:24:00.447000000
        NUMBER_OF_FRAMES: 67522
        NUMBER_OF_BYTES : 34958902
        _STATISTICS_WRITING_APP: mkvpropedit v66.0.0 ('Josie') 64-bit
        _STATISTICS_WRITING_DATE_UTC: 2025-06-20 15:11:44
        _STATISTICS_TAGS: BPS DURATION NUMBER_OF_FRAMES NUMBER_OF_BYTES
  Stream #0:2(rus): Subtitle: ass (ssa) (default) (forced)
      Metadata:
        title           : Надписи
        BPS             : 14
        DURATION        : 00:07:38.810000000
        NUMBER_OF_FRAMES: 5
        NUMBER_OF_BYTES : 832
        _STATISTICS_WRITING_APP: mkvpropedit v66.0.0 ('Josie') 64-bit
        _STATISTICS_WRITING_DATE_UTC: 2025-06-20 15:11:44
        _STATISTICS_TAGS: BPS DURATION NUMBER_OF_FRAMES NUMBER_OF_BYTES
  Stream #0:3(rus): Subtitle: ass (ssa)
      Metadata:
        title           : Субтитры
        BPS             : 110
        DURATION        : 00:23:47.190000000
        NUMBER_OF_FRAMES: 325
        NUMBER_OF_BYTES : 19777
        _STATISTICS_WRITING_APP: mkvpropedit v66.0.0 ('Josie') 64-bit
        _STATISTICS_WRITING_DATE_UTC: 2025-06-20 15:11:44
        _STATISTICS_TAGS: BPS DURATION NUMBER_OF_FRAMES NUMBER_OF_BYTES
Input #1, matroska,webm, from 'G:\Аниме\[Топ-4]\Держась За Руки\Hand_Shakers_[01]_[AniLibria.TV]_[HDTV-Rip_720p].mkv':
  Metadata:
    encoder         : libebml v1.4.2 + libmatroska v1.6.4
    creation_time   : 2024-12-27T17:04:07.000000Z
  Duration: 00:24:00.45, start: 0.000000, bitrate: 5342 kb/s
  Stream #1:0(jpn): Video: h264 (High), yuv420p(tv, bt709, progressive), 1280x720 [SAR 1:1 DAR 16:9], 23.98 fps, 23.98 tbr, 1k tbn (default)
      Metadata:
        BPS             : 5152913
        DURATION        : 00:23:59.355000000
        NUMBER_OF_FRAMES: 34510
        NUMBER_OF_BYTES : 927108948
        _STATISTICS_WRITING_APP: mkvmerge v66.0.0 ('Josie') 64-bit
        _STATISTICS_WRITING_DATE_UTC: 2024-12-27 17:04:07
        _STATISTICS_TAGS: BPS DURATION NUMBER_OF_FRAMES NUMBER_OF_BYTES
  Stream #1:1(rus): Audio: aac (LC), 48000 Hz, stereo, fltp (default) (forced)
      Metadata:
        title           : Амикири и Анзен
        BPS             : 189375
        DURATION        : 00:24:00.447000000
        NUMBER_OF_FRAMES: 67521
        NUMBER_OF_BYTES : 34098105
        _STATISTICS_WRITING_APP: mkvmerge v66.0.0 ('Josie') 64-bit
        _STATISTICS_WRITING_DATE_UTC: 2024-12-27 17:04:07
        _STATISTICS_TAGS: BPS DURATION NUMBER_OF_FRAMES NUMBER_OF_BYTES
  Stream #1:2(rus): Subtitle: ass (ssa) (default) (forced)
      Metadata:
        title           : Надписи
        BPS             : 14
        DURATION        : 00:07:38.810000000
        NUMBER_OF_FRAMES: 5
        NUMBER_OF_BYTES : 832
        _STATISTICS_WRITING_APP: mkvmerge v66.0.0 ('Josie') 64-bit
        _STATISTICS_WRITING_DATE_UTC: 2024-12-27 17:04:07
        _STATISTICS_TAGS: BPS DURATION NUMBER_OF_FRAMES NUMBER_OF_BYTES
  Stream #1:3(rus): Subtitle: ass (ssa)
      Metadata:
        title           : Субтитры
        BPS             : 110
        DURATION        : 00:23:47.190000000
        NUMBER_OF_FRAMES: 325
        NUMBER_OF_BYTES : 19777
        _STATISTICS_WRITING_APP: mkvmerge v66.0.0 ('Josie') 64-bit
        _STATISTICS_WRITING_DATE_UTC: 2024-12-27 17:04:07
        _STATISTICS_TAGS: BPS DURATION NUMBER_OF_FRAMES NUMBER_OF_BYTES
  Stream #1:4: Attachment: ttf
      Metadata:
        filename        : 8289.otf
        mimetype        : application/x-truetype-font
  Stream #1:5: Attachment: ttf
      Metadata:
        filename        : 10200.ttf
        mimetype        : application/x-truetype-font
  Stream #1:6: Attachment: ttf
      Metadata:
        filename        : 10322.ttf
        mimetype        : application/x-truetype-font
Stream mapping:
  Stream #0:0 (hevc) -> settb:default
  Stream #1:0 (h264) -> settb:default
  psnr:default -> Stream #0:0 (wrapped_avframe)
  Stream #0:1 -> #0:1 (aac (native) -> pcm_s16le (native))
Output #0, null, to 'pipe:':
  Metadata:
    encoder         : Lavf61.7.100
  Stream #0:0: Video: wrapped_avframe, yuv420p10le(tv, bt709, progressive), 1280x720 [SAR 1:1 DAR 16:9], q=2-31, 200 kb/s, 23.98 fps, 23.98 tbn
      Metadata:
        encoder         : Lavc61.19.100 wrapped_avframe
  Stream #0:1(rus): Audio: pcm_s16le, 48000 Hz, stereo, s16, 1536 kb/s (default) (forced)
      Metadata:
        title           : Амикири и Анзен
        _STATISTICS_TAGS: BPS DURATION NUMBER_OF_FRAMES NUMBER_OF_BYTES
        BPS             : 194155
        DURATION        : 00:24:00.447000000
        NUMBER_OF_FRAMES: 67522
        NUMBER_OF_BYTES : 34958902
        _STATISTICS_WRITING_APP: mkvpropedit v66.0.0 ('Josie') 64-bit
        _STATISTICS_WRITING_DATE_UTC: 2025-06-20 15:11:44
        encoder         : Lavc61.19.100 pcm_s16le
frame=  243 fps=0.0 q=-0.0 size=N/A time=00:00:10.13 bitrate=N/A speed=19.4x    frame=  493 fps=469 q=-0.0 size=N/A time=00:00:20.56 bitrate=N/A speed=19.6x    frame=  723 fps=463 q=-0.0 size=N/A time=00:00:30.15 bitrate=N/A speed=19.3x    frame=  963 fps=464 q=-0.0 size=N/A time=00:00:40.16 bitrate=N/A speed=19.4x    frame= 1131 fps=435 q=-0.0 size=N/A time=00:00:47.17 bitrate=N/A speed=18.2x    frame= 1328 fps=427 q=-0.0 size=N/A time=00:00:55.38 bitrate=N/A speed=17.8x    frame= 1566 fps=433 q=-0.0 size=N/A time=00:01:05.31 bitrate=N/A speed=  18x    frame= 1823 fps=440 q=-0.0 size=N/A time=00:01:16.03 bitrate=N/A speed=18.3x    frame= 2034 fps=437 q=-0.0 size=N/A time=00:01:24.83 bitrate=N/A speed=18.2x    frame= 2217 fps=428 q=-0.0 size=N/A time=00:01:32.46 bitrate=N/A speed=17.9x    frame= 2393 fps=421 q=-0.0 size=N/A time=00:01:39.80 bitrate=N/A speed=17.6x    frame= 2674 fps=431 q=-0.0 size=N/A time=00:01:51.52 bitrate=N/A speed=  18x    frame= 2930 fps=436 q=-0.0 size=N/A time=00:02:02.20 bitrate=N/A speed=18.2x    frame= 3179 fps=440 q=-0.0 size=N/A time=00:02:12.59 bitrate=N/A speed=18.3x    frame= 3492 fps=450 q=-0.0 size=N/A time=00:02:25.64 bitrate=N/A speed=18.8x    frame= 3832 fps=463 q=-0.0 size=N/A time=00:02:39.82 bitrate=N/A speed=19.3x    frame= 4145 fps=472 q=-0.0 size=N/A time=00:02:52.88 bitrate=N/A speed=19.7x    frame= 4458 fps=479 q=-0.0 size=N/A time=00:03:05.93 bitrate=N/A speed=  20x    frame= 4759 fps=485 q=-0.0 size=N/A time=00:03:18.48 bitrate=N/A speed=20.2x    frame= 5057 fps=490 q=-0.0 size=N/A time=00:03:30.91 bitrate=N/A speed=20.4x    frame= 5305 fps=489 q=-0.0 size=N/A time=00:03:41.26 bitrate=N/A speed=20.4x    frame= 5499 fps=484 q=-0.0 size=N/A time=00:03:49.35 bitrate=N/A speed=20.2x    frame= 5761 fps=485 q=-0.0 size=N/A time=00:04:00.28 bitrate=N/A speed=20.2x    frame= 6047 fps=488 q=-0.0 size=N/A time=00:04:12.21 bitrate=N/A speed=20.4x    frame= 6445 fps=499 q=-0.0 size=N/A time=00:04:28.81 bitrate=N/A speed=20.8x    frame= 6667 fps=497 q=-0.0 size=N/A time=00:04:38.06 bitrate=N/A speed=20.7x    frame= 6890 fps=494 q=-0.0 size=N/A time=00:04:47.37 bitrate=N/A speed=20.6x    frame= 7137 fps=494 q=-0.0 size=N/A time=00:04:57.67 bitrate=N/A speed=20.6x    frame= 7502 fps=501 q=-0.0 size=N/A time=00:05:12.89 bitrate=N/A speed=20.9x    frame= 7856 fps=508 q=-0.0 size=N/A time=00:05:27.66 bitrate=N/A speed=21.2x    frame= 8236 fps=515 q=-0.0 size=N/A time=00:05:43.50 bitrate=N/A speed=21.5x    frame= 8659 fps=524 q=-0.0 size=N/A time=00:06:01.15 bitrate=N/A speed=21.9x    frame= 9067 fps=533 q=-0.0 size=N/A time=00:06:18.16 bitrate=N/A speed=22.2x    frame= 9522 fps=542 q=-0.0 size=N/A time=00:06:37.14 bitrate=N/A speed=22.6x    frame=10022 fps=555 q=-0.0 size=N/A time=00:06:58.00 bitrate=N/A speed=23.1x    frame=10433 fps=562 q=-0.0 size=N/A time=00:07:15.14 bitrate=N/A speed=23.4x    frame=10860 fps=569 q=-0.0 size=N/A time=00:07:32.95 bitrate=N/A speed=23.7x    frame=11277 fps=575 q=-0.0 size=N/A time=00:07:50.34 bitrate=N/A speed=  24x    frame=11685 fps=581 q=-0.0 size=N/A time=00:08:07.36 bitrate=N/A speed=24.2x    frame=11964 fps=580 q=-0.0 size=N/A time=00:08:18.99 bitrate=N/A speed=24.2x    frame=12267 fps=580 q=-0.0 size=N/A time=00:08:31.63 bitrate=N/A speed=24.2x    frame=12648 fps=584 q=-0.0 size=N/A time=00:08:47.52 bitrate=N/A speed=24.3x    frame=13046 fps=588 q=-0.0 size=N/A time=00:09:04.12 bitrate=N/A speed=24.5x    frame=13406 fps=590 q=-0.0 size=N/A time=00:09:19.14 bitrate=N/A speed=24.6x    frame=13783 fps=594 q=-0.0 size=N/A time=00:09:34.86 bitrate=N/A speed=24.8x    frame=14111 fps=595 q=-0.0 size=N/A time=00:09:48.54 bitrate=N/A speed=24.8x    frame=14630 fps=603 q=-0.0 size=N/A time=00:10:10.19 bitrate=N/A speed=25.2x    frame=15082 fps=609 q=-0.0 size=N/A time=00:10:29.04 bitrate=N/A speed=25.4x    frame=15532 fps=615 q=-0.0 size=N/A time=00:10:47.81 bitrate=N/A speed=25.6x    frame=16016 fps=621 q=-0.0 size=N/A time=00:11:08.00 bitrate=N/A speed=25.9x    frame=16550 fps=629 q=-0.0 size=N/A time=00:11:30.27 bitrate=N/A speed=26.2x    frame=17039 fps=635 q=-0.0 size=N/A time=00:11:50.66 bitrate=N/A speed=26.5x    frame=17531 fps=641 q=-0.0 size=N/A time=00:12:11.18 bitrate=N/A speed=26.7x    frame=17975 fps=645 q=-0.0 size=N/A time=00:12:29.70 bitrate=N/A speed=26.9x    frame=18260 fps=644 q=-0.0 size=N/A time=00:12:41.59 bitrate=N/A speed=26.8x    frame=18480 fps=640 q=-0.0 size=N/A time=00:12:50.77 bitrate=N/A speed=26.7x    frame=18736 fps=637 q=-0.0 size=N/A time=00:13:01.44 bitrate=N/A speed=26.6x    frame=19142 fps=640 q=-0.0 size=N/A time=00:13:18.38 bitrate=N/A speed=26.7x    frame=19588 fps=644 q=-0.0 size=N/A time=00:13:36.98 bitrate=N/A speed=26.8x    frame=19935 fps=644 q=-0.0 size=N/A time=00:13:51.45 bitrate=N/A speed=26.9x    frame=20310 fps=646 q=-0.0 size=N/A time=00:14:07.09 bitrate=N/A speed=26.9x    frame=20826 fps=651 q=-0.0 size=N/A time=00:14:28.61 bitrate=N/A speed=27.2x    frame=21304 fps=655 q=-0.0 size=N/A time=00:14:48.55 bitrate=N/A speed=27.3x    frame=21786 fps=660 q=-0.0 size=N/A time=00:15:08.65 bitrate=N/A speed=27.5x    frame=22069 fps=658 q=-0.0 size=N/A time=00:15:20.46 bitrate=N/A speed=27.5x    frame=22355 fps=657 q=-0.0 size=N/A time=00:15:32.38 bitrate=N/A speed=27.4x    frame=22635 fps=655 q=-0.0 size=N/A time=00:15:44.06 bitrate=N/A speed=27.3x    frame=22971 fps=655 q=-0.0 size=N/A time=00:15:58.08 bitrate=N/A speed=27.3x    frame=23218 fps=652 q=-0.0 size=N/A time=00:16:08.38 bitrate=N/A speed=27.2x    frame=23481 fps=650 q=-0.0 size=N/A time=00:16:19.35 bitrate=N/A speed=27.1x    frame=23746 fps=648 q=-0.0 size=N/A time=00:16:30.40 bitrate=N/A speed=  27x    frame=24026 fps=647 q=-0.0 size=N/A time=00:16:42.08 bitrate=N/A speed=  27x    frame=24335 fps=646 q=-0.0 size=N/A time=00:16:54.97 bitrate=N/A speed=  27x    frame=24614 fps=645 q=-0.0 size=N/A time=00:17:06.60 bitrate=N/A speed=26.9x    frame=24860 fps=642 q=-0.0 size=N/A time=00:17:16.86 bitrate=N/A speed=26.8x    frame=25134 fps=641 q=-0.0 size=N/A time=00:17:28.29 bitrate=N/A speed=26.7x    frame=25392 fps=639 q=-0.0 size=N/A time=00:17:39.05 bitrate=N/A speed=26.7x    frame=25642 fps=637 q=-0.0 size=N/A time=00:17:49.48 bitrate=N/A speed=26.6x    frame=25995 fps=638 q=-0.0 size=N/A time=00:18:04.20 bitrate=N/A speed=26.6x    frame=26336 fps=638 q=-0.0 size=N/A time=00:18:18.43 bitrate=N/A speed=26.6x    frame=26683 fps=639 q=-0.0 size=N/A time=00:18:32.90 bitrate=N/A speed=26.6x    frame=26951 fps=637 q=-0.0 size=N/A time=00:18:44.08 bitrate=N/A speed=26.6x    frame=27225 fps=636 q=-0.0 size=N/A time=00:18:55.50 bitrate=N/A speed=26.5x    frame=27549 fps=636 q=-0.0 size=N/A time=00:19:09.02 bitrate=N/A speed=26.5x    frame=27758 fps=633 q=-0.0 size=N/A time=00:19:17.73 bitrate=N/A speed=26.4x    frame=27935 fps=630 q=-0.0 size=N/A time=00:19:25.12 bitrate=N/A speed=26.3x    frame=28141 fps=627 q=-0.0 size=N/A time=00:19:33.71 bitrate=N/A speed=26.2x    frame=28322 fps=624 q=-0.0 size=N/A time=00:19:41.26 bitrate=N/A speed=  26x    frame=28568 fps=622 q=-0.0 size=N/A time=00:19:51.52 bitrate=N/A speed=  26x    frame=28827 fps=621 q=-0.0 size=N/A time=00:20:02.32 bitrate=N/A speed=25.9x    frame=29042 fps=619 q=-0.0 size=N/A time=00:20:11.29 bitrate=N/A speed=25.8x    frame=29292 fps=617 q=-0.0 size=N/A time=00:20:21.72 bitrate=N/A speed=25.7x    frame=29589 fps=617 q=-0.0 size=N/A time=00:20:34.10 bitrate=N/A speed=25.7x    frame=29875 fps=616 q=-0.0 size=N/A time=00:20:46.03 bitrate=N/A speed=25.7x    frame=30096 fps=614 q=-0.0 size=N/A time=00:20:55.25 bitrate=N/A speed=25.6x    frame=30366 fps=613 q=-0.0 size=N/A time=00:21:06.51 bitrate=N/A speed=25.6x    frame=30554 fps=611 q=-0.0 size=N/A time=00:21:14.35 bitrate=N/A speed=25.5x    frame=30827 fps=610 q=-0.0 size=N/A time=00:21:25.74 bitrate=N/A speed=25.4x    frame=31010 fps=607 q=-0.0 size=N/A time=00:21:33.37 bitrate=N/A speed=25.3x    frame=31245 fps=606 q=-0.0 size=N/A time=00:21:43.17 bitrate=N/A speed=25.3x    frame=31539 fps=605 q=-0.0 size=N/A time=00:21:55.43 bitrate=N/A speed=25.3x    frame=31762 fps=604 q=-0.0 size=N/A time=00:22:04.74 bitrate=N/A speed=25.2x    frame=31950 fps=601 q=-0.0 size=N/A time=00:22:12.58 bitrate=N/A speed=25.1x    frame=32210 fps=601 q=-0.0 size=N/A time=00:22:23.42 bitrate=N/A speed=  25x    frame=32488 fps=600 q=-0.0 size=N/A time=00:22:35.02 bitrate=N/A speed=  25x    frame=32711 fps=598 q=-0.0 size=N/A time=00:22:44.32 bitrate=N/A speed=  25x    frame=32968 fps=597 q=-0.0 size=N/A time=00:22:55.04 bitrate=N/A speed=24.9x    frame=33173 fps=596 q=-0.0 size=N/A time=00:23:03.59 bitrate=N/A speed=24.8x    frame=33357 fps=593 q=-0.0 size=N/A time=00:23:11.26 bitrate=N/A speed=24.7x    frame=33650 fps=593 q=-0.0 size=N/A time=00:23:23.48 bitrate=N/A speed=24.7x    frame=33947 fps=593 q=-0.0 size=N/A time=00:23:35.87 bitrate=N/A speed=24.7x    frame=34373 fps=595 q=-0.0 size=N/A time=00:23:53.64 bitrate=N/A speed=24.8x    [Parsed_psnr_10 @ 000002d99f640300] PSNR y:42.830363 u:45.366608 v:45.701672 average:43.558432 min:35.702625 max:inf
[out#0/null @ 000002d99cd9ef00] video:14829KiB audio:270088KiB subtitle:0KiB other streams:0KiB global headers:0KiB muxing overhead: unknown
frame=34510 fps=596 q=-0.0 Lsize=N/A time=00:23:59.35 bitrate=N/A speed=24.9x    
